<svg aria-hidden="true" style="position: absolute; width: 0; height: 0; overflow: hidden;" version="1.1" xmlns="http://www.w3.org/2000/svg" xmlns:xlink="http://www.w3.org/1999/xlink">
<defs>
<symbol id="icon-accessories" viewBox="0 0 32 32">
<path d="M10.261 12.101c4.212 5.763 4.892 9.963 4.008 12.566-1.469 4.33-7.184 4.33-8.653 0-0.884-2.606-0.202-6.813 4.024-12.588l-0.001-0.001c0.157-0.215 0.483-0.198 0.62 0.023zM13.561 24.427c0.796-2.347 0.169-6.166-3.617-11.487-3.786 5.321-4.414 9.14-3.617 11.486 1.238 3.65 5.996 3.65 7.235 0z"></path>
<path d="M22.375 12.101c4.212 5.763 4.892 9.963 4.008 12.566-1.469 4.33-7.183 4.33-8.653 0-0.884-2.606-0.202-6.813 4.024-12.588l-0.001-0.001c0.157-0.215 0.483-0.198 0.62 0.023zM25.674 24.427c0.796-2.347 0.169-6.166-3.617-11.487-3.786 5.321-4.414 9.14-3.617 11.486 1.238 3.65 5.996 3.65 7.235 0z"></path>
<path d="M9.944 26.030c-1.351 0-2.411-1.010-2.695-2.57-0.471-2.57 1.031-5.75 2.375-7.964 0.145-0.239 0.496-0.239 0.641 0 1.344 2.216 2.846 5.396 2.375 7.964-0.284 1.562-1.341 2.57-2.695 2.57zM9.944 16.426c-5.25 9.143 1.249 10.784 1.958 6.899 0.393-2.143-0.776-4.841-1.958-6.899z"></path>
<path d="M9.944 12.676c-0.096 0-0.193-0.036-0.266-0.109l-1.518-1.518c-0.146-0.146-0.146-0.383 0-0.531l1.518-1.518c0.146-0.146 0.383-0.146 0.531 0l1.518 1.518c0.146 0.146 0.146 0.386 0 0.531l-1.518 1.518c-0.073 0.073-0.169 0.11-0.266 0.11zM8.954 10.783l0.99 0.99 0.99-0.99-0.99-0.99-0.99 0.99z"></path>
<path d="M9.944 9.639c-0.208 0-0.375-0.167-0.375-0.375v-1.453c0-0.494 0.75-0.494 0.75 0v1.453c0 0.206-0.167 0.375-0.375 0.375z"></path>
<path d="M9.944 8.186c-0.807 0-1.464-0.656-1.464-1.464s0.656-1.464 1.464-1.464c0.807 0 1.464 0.656 1.464 1.464s-0.656 1.464-1.464 1.464zM9.944 6.007c-0.939 0-0.939 1.427 0 1.427 0.938 0 0.941-1.427 0-1.427z"></path>
<path d="M9.944 6.007c-0.208 0-0.375-0.167-0.375-0.375v-2.289c0-0.569 0.648-0.189 1.159-0.7 0.697-0.698 0.2-1.893-0.784-1.893-0.612 0-1.109 0.497-1.109 1.109 0 0.494-0.75 0.494-0.75 0 0-1.023 0.833-1.859 1.859-1.859 2.252 0 2.515 3.255 0.375 3.68v1.951c0 0.208-0.167 0.378-0.375 0.378z"></path>
<path d="M22.059 12.676c-0.096 0-0.193-0.036-0.266-0.109l-1.518-1.518c-0.146-0.146-0.146-0.383 0-0.531l1.518-1.518c0.146-0.146 0.383-0.146 0.531 0l1.518 1.518c0.146 0.146 0.146 0.383 0 0.531l-1.518 1.518c-0.073 0.073-0.169 0.109-0.266 0.109zM21.069 10.783l0.99 0.99 0.99-0.99-0.99-0.99-0.99 0.99z"></path>
<path d="M22.059 9.639c-0.206 0-0.375-0.167-0.375-0.375v-1.453c0-0.494 0.75-0.494 0.75 0v1.453c0 0.206-0.169 0.375-0.375 0.375z"></path>
<path d="M22.059 8.186c-0.807 0-1.464-0.656-1.464-1.464s0.656-1.464 1.464-1.464c0.807 0 1.464 0.656 1.464 1.464s-0.656 1.464-1.464 1.464zM22.059 6.007c-0.939 0-0.939 1.427 0 1.427s0.939-1.427 0-1.427z"></path>
<path d="M22.059 6.007c-0.206 0-0.375-0.167-0.375-0.375v-2.289c0-0.569 0.648-0.189 1.159-0.7 0.698-0.698 0.199-1.893-0.781-1.893-0.609 0-1.109 0.497-1.109 1.109 0 0.493-0.749 0.494-0.75 0-0.003-1.023 0.831-1.857 1.857-1.857 2.24 0 2.527 3.239 0.375 3.682v1.951c0 0.203-0.169 0.372-0.375 0.372z"></path>
<path d="M22.059 26.030c-1.352 0-2.411-1.010-2.698-2.57-0.469-2.57 1.034-5.75 2.375-7.964 0.145-0.239 0.496-0.239 0.641 0 1.344 2.213 2.846 5.393 2.375 7.964-0.281 1.562-1.341 2.57-2.693 2.57zM22.059 16.426c-5.25 9.143 1.249 10.784 1.958 6.899 0.393-2.143-0.779-4.841-1.958-6.899z"></path>
<path d="M9.944 32.001c-0.667 0-1.185-0.484-1.323-1.234-0.164-0.901 0.172-2.052 1.003-3.419 0.145-0.239 0.496-0.239 0.641 0 0.831 1.367 1.167 2.518 1.003 3.419-0.138 0.75-0.656 1.234-1.323 1.234zM9.944 28.303c-1.585 3.035 0.362 3.576 0.586 2.328 0.107-0.591-0.094-1.388-0.586-2.328z"></path>
<path d="M22.059 32.001c-0.667 0-1.185-0.484-1.323-1.234-0.164-0.901 0.172-2.052 1.003-3.419 0.145-0.239 0.496-0.239 0.641 0 0.831 1.367 1.167 2.518 1.003 3.419-0.138 0.75-0.656 1.234-1.323 1.234zM22.059 28.303c-1.585 3.035 0.362 3.576 0.586 2.328 0.107-0.591-0.096-1.388-0.586-2.328z"></path>
</symbol>
</defs>
</svg>
