<svg aria-hidden="true" style="position: absolute; width: 0; height: 0; overflow: hidden;" version="1.1" xmlns="http://www.w3.org/2000/svg" xmlns:xlink="http://www.w3.org/1999/xlink">
<defs>
<symbol id="icon-contact_us" viewBox="0 0 32 32">
<path d="M30.822 24.199l-5.625-4.112c-0.255-0.188-0.576-0.302-0.924-0.302-0.427 0-0.815 0.171-1.097 0.449l0-0-3.015 2.961c-0.24 0.232-0.567 0.375-0.927 0.375-0.371 0-0.707-0.151-0.948-0.396l-9.46-9.46c-0.245-0.242-0.396-0.578-0.396-0.949 0-0.361 0.143-0.688 0.375-0.928l-0 0 0.010-0.010 2.951-3.005c0.278-0.282 0.449-0.67 0.449-1.097 0-0.347-0.113-0.668-0.305-0.928l0.003 0.004-4.112-5.625c-0.288-0.391-0.747-0.642-1.264-0.642-0.432 0-0.824 0.175-1.107 0.459l-2.12 2.12q-0.201 0.201-0.384 0.417c-0.389 0.46-1.232 1.491-1.552 2.154-0.526 1.084-0.833 2.358-0.833 3.704 0 2.253 0.862 4.306 2.274 5.845l-0.006-0.006 13.962 13.962c1.533 1.406 3.585 2.268 5.838 2.268 1.346 0 2.62-0.307 3.756-0.856l-0.052 0.023c0.663-0.32 1.695-1.163 2.154-1.552q0.216-0.183 0.417-0.384l2.12-2.12c0.283-0.283 0.459-0.675 0.459-1.107 0-0.517-0.251-0.976-0.637-1.261l-0.004-0.003z"></path>
</defs>
</svg>
