<svg aria-hidden="true" style="position: absolute; width: 0; height: 0; overflow: hidden;" version="1.1" xmlns="http://www.w3.org/2000/svg" xmlns:xlink="http://www.w3.org/1999/xlink">
<defs>
<symbol id="icon-costumes" viewBox="0 0 32 32">
<path d="M32 14.399v13.835c0 2.071-1.694 3.765-3.765 3.765s-3.765-1.694-3.765-3.765v-9.468c3.125-0.264 5.835-1.939 7.529-4.367zM8.471 0c3.298 0 6.131 1.914 7.529 4.67 1.399-2.756 4.232-4.67 7.529-4.67h8.471v8.471c0 4.67-3.8 8.471-8.471 8.471h-15.059c-4.67-0-8.471-3.8-8.471-8.471v-8.471zM28.235 5.647h-4.706c-2.596 0-4.706 2.112-4.706 4.706v0.941h4.706c2.596 0 4.706-2.112 4.706-4.706v-0.941zM8.471 5.647h-4.706v0.941c0 2.594 2.11 4.706 4.706 4.706h4.706v-0.941c0-2.594-2.11-4.706-4.706-4.706z"></path>
</symbol>
</defs>
</svg>
