<svg aria-hidden="true" style="position: absolute; width: 0; height: 0; overflow: hidden;" version="1.1" xmlns="http://www.w3.org/2000/svg" xmlns:xlink="http://www.w3.org/1999/xlink">
<defs>
<symbol id="icon-contact_us" viewBox="0 0 32 32">
<path d="M30.822 24.199l-5.625-4.112c-0.255-0.188-0.576-0.302-0.924-0.302-0.427 0-0.815 0.171-1.097 0.449l0-0-3.015 2.961c-0.24 0.232-0.567 0.375-0.927 0.375-0.371 0-0.707-0.151-0.948-0.396l-9.46-9.46c-0.245-0.242-0.396-0.578-0.396-0.949 0-0.361 0.143-0.688 0.375-0.928l-0 0 0.010-0.010 2.951-3.005c0.278-0.282 0.449-0.67 0.449-1.097 0-0.347-0.113-0.668-0.305-0.928l0.003 0.004-4.112-5.625c-0.288-0.391-0.747-0.642-1.264-0.642-0.432 0-0.824 0.175-1.107 0.459l-2.12 2.12q-0.201 0.201-0.384 0.417c-0.389 0.46-1.232 1.491-1.552 2.154-0.526 1.084-0.833 2.358-0.833 3.704 0 2.253 0.862 4.306 2.274 5.845l-0.006-0.006 13.962 13.962c1.533 1.406 3.585 2.268 5.838 2.268 1.346 0 2.62-0.307 3.756-0.856l-0.052 0.023c0.663-0.32 1.695-1.163 2.154-1.552q0.216-0.183 0.417-0.384l2.12-2.12c0.283-0.283 0.459-0.675 0.459-1.107 0-0.517-0.251-0.976-0.637-1.261l-0.004-0.003z"></path>
</symbol>
<symbol id="icon-decorations" viewBox="0 0 32 32">
<path d="M31.5 9.815c-0.071-0.041-0.156-0.065-0.247-0.065-0.184 0-0.345 0.1-0.432 0.248l-0.001 0.002s-0.89 1.5-3.32 2.905h-0.145l-2.055 0.355-1.455-1.5c-0.091-0.094-0.218-0.153-0.36-0.153-0.252 0-0.461 0.187-0.495 0.43l-0 0.003-0.3 2.060-1.855 0.9c-0.065 0.037-0.12 0.083-0.164 0.139l-0.001 0.001-0.825 0.115c0.001-0.004 0.002-0.008 0.002-0.012s-0.001-0.009-0.002-0.013l0 0c-0.060-0.18-0.214-0.312-0.402-0.34l-0.003-0-2.065-0.3-0.925-1.85c-0.083-0.168-0.253-0.282-0.45-0.282s-0.367 0.114-0.449 0.279l-0.001 0.003-0.92 1.87-2.065 0.3c-0.191 0.028-0.345 0.16-0.404 0.336l-0.001 0.004c-0.27-0.035-0.555-0.080-0.835-0.125-0.043-0.050-0.094-0.092-0.152-0.124l-0.003-0.001-1.88-0.9-0.29-2.060c-0.034-0.246-0.243-0.433-0.495-0.433-0.141 0-0.269 0.058-0.359 0.152l-0 0-1.455 1.5-2.055-0.355h-0.050c-2.63-1.5-3.625-3.13-3.645-3.16-0.088-0.149-0.248-0.247-0.431-0.247-0.096 0-0.185 0.027-0.261 0.073l0.002-0.001c-0.148 0.089-0.246 0.248-0.246 0.431 0 0.092 0.025 0.178 0.068 0.251l-0.001-0.002c0.045 0.080 1.155 1.93 4.14 3.6l0.86 1.65-0.97 1.83c-0.036 0.067-0.057 0.148-0.057 0.233 0 0.276 0.224 0.5 0.5 0.5 0.031 0 0.061-0.003 0.091-0.008l-0.003 0 2.055-0.355 1.46 1.5c0.091 0.093 0.217 0.15 0.357 0.15 0.001 0 0.002 0 0.003 0h-0c0.023 0.003 0.050 0.005 0.078 0.005s0.054-0.002 0.081-0.006l-0.003 0c0.18-0.060 0.312-0.214 0.34-0.402l0-0.003 0.3-2.070 1.535-0.76c0.71 0.12 1.39 0.21 2.055 0.27l0.89 0.865-0.355 2.060c-0.006 0.028-0.009 0.060-0.009 0.094 0 0.167 0.082 0.315 0.207 0.405l0.001 0.001c0.082 0.061 0.185 0.098 0.297 0.098 0.085 0 0.166-0.021 0.236-0.059l-0.003 0.001 1.845-1.015 1.845 0.975c0.069 0.034 0.149 0.054 0.235 0.055h0c0.001 0 0.001 0 0.002 0 0.11 0 0.212-0.036 0.295-0.096l-0.001 0.001c0.127-0.092 0.209-0.24 0.209-0.406 0-0.033-0.003-0.065-0.009-0.097l0.001 0.003-0.355-2.060 0.88-0.86c0.71-0.065 1.41-0.155 2.085-0.265l1.5 0.75 0.3 2.070c0.028 0.191 0.16 0.345 0.336 0.404l0.004 0.001c0.023 0.003 0.050 0.005 0.078 0.005s0.054-0.002 0.081-0.006l-0.003 0c0.001 0 0.002 0 0.003 0 0.14 0 0.266-0.057 0.357-0.15l0-0 1.46-1.5 2.055 0.355c0.026 0.005 0.057 0.008 0.087 0.008 0.276 0 0.5-0.224 0.5-0.5 0-0.085-0.021-0.165-0.059-0.235l0.001 0.003-0.955-1.79 0.82-1.56c2.875-1.595 3.895-3.35 3.935-3.425 0.047-0.075 0.074-0.165 0.074-0.262 0-0.188-0.104-0.351-0.257-0.437l-0.003-0.001zM8.615 16.065c-0.145 0.074-0.247 0.213-0.27 0.377l-0 0.003-0.19 1.325-0.935-0.96c-0.091-0.093-0.217-0.15-0.357-0.15-0.001 0-0.002 0-0.003 0h-0.085l-1.315 0.23 0.62-1.185c0.035-0.067 0.056-0.146 0.056-0.23s-0.021-0.163-0.057-0.233l0.001 0.003-0.625-1.185 1.315 0.225c0.026 0.005 0.055 0.007 0.086 0.007 0.141 0 0.268-0.058 0.359-0.152l0-0 0.93-0.96 0.195 1.32c0.024 0.168 0.128 0.307 0.272 0.379l0.003 0.001 1.2 0.585zM17.335 16.69c-0.094 0.091-0.152 0.218-0.152 0.359 0 0.029 0.002 0.057 0.007 0.084l-0-0.003 0.225 1.32-1.18-0.62c-0.068-0.037-0.149-0.059-0.235-0.059s-0.167 0.022-0.238 0.060l0.003-0.001-1.18 0.62 0.225-1.32c0.005-0.026 0.007-0.055 0.007-0.086 0-0.141-0.058-0.268-0.152-0.359l-0-0-0.955-0.93 1.32-0.19c0.168-0.024 0.307-0.128 0.379-0.272l0.001-0.003 0.59-1.2 0.59 1.2c0.073 0.147 0.212 0.251 0.377 0.275l0.003 0 1.32 0.19zM25.92 15.69l0.62 1.185-1.315-0.23c-0.026-0.005-0.055-0.007-0.086-0.007-0.141 0-0.268 0.058-0.359 0.152l-0 0-0.935 0.96-0.19-1.325c-0.023-0.167-0.125-0.306-0.267-0.379l-0.003-0.001-1.2-0.595 1.2-0.585c0.147-0.073 0.251-0.212 0.275-0.377l0-0.003 0.195-1.32 0.93 0.96c0.091 0.094 0.218 0.152 0.359 0.152 0.030 0 0.060-0.003 0.089-0.008l-0.003 0 1.315-0.225-0.625 1.18c-0.039 0.070-0.063 0.153-0.063 0.242s0.023 0.173 0.064 0.245l-0.001-0.002z"></path>
<path d="M29.255 20.915c1.102-1.206 2.015-2.608 2.678-4.143l0.037-0.097c0.020-0.052 0.032-0.112 0.032-0.175 0-0.277-0.225-0.502-0.502-0.502-0.214 0-0.397 0.134-0.469 0.323l-0.001 0.003c-0.652 1.517-1.503 2.82-2.539 3.95l0.009-0.010-0.17-0.145c-0.089-0.083-0.209-0.133-0.34-0.133s-0.251 0.051-0.34 0.134l0-0-2 2c-0.087 0.090-0.141 0.213-0.141 0.348 0 0.108 0.034 0.207 0.092 0.289l-0.001-0.002c-0.587 0.399-1.262 0.784-1.968 1.116l-0.092 0.039-0.1-0.18c-0.087-0.153-0.25-0.255-0.436-0.255-0.066 0-0.13 0.013-0.187 0.036l0.003-0.001-2.5 1c-0.183 0.077-0.31 0.255-0.31 0.462 0 0.035 0.003 0.068 0.010 0.101l-0.001-0.003c-0.559 0.126-1.252 0.235-1.956 0.304l-0.074 0.006c-0.056-0.22-0.252-0.38-0.485-0.38-0.002 0-0.003 0-0.005 0h-3c-0.003-0-0.006-0-0.009-0-0.243 0-0.445 0.173-0.49 0.402l-0.001 0.003c-0.769-0.076-1.451-0.185-2.119-0.332l0.119 0.022c0.006-0.029 0.010-0.063 0.010-0.098 0-0.207-0.126-0.385-0.306-0.461l-0.003-0.001-2.5-1c-0.055-0.022-0.118-0.035-0.184-0.035-0.186 0-0.349 0.102-0.435 0.253l-0.001 0.002-0.1 0.18c-0.798-0.371-1.473-0.756-2.114-1.189l0.054 0.034c0.057-0.080 0.091-0.18 0.091-0.287 0-0.135-0.054-0.258-0.141-0.348l-2-2c-0.089-0.083-0.209-0.133-0.34-0.133s-0.251 0.051-0.34 0.134l0-0-0.19 0.12c-1.027-1.121-1.879-2.423-2.5-3.85l-0.035-0.090c-0.072-0.192-0.255-0.327-0.469-0.327-0.063 0-0.124 0.012-0.179 0.033l0.003-0.001c-0.193 0.072-0.327 0.255-0.327 0.469 0 0.063 0.012 0.124 0.033 0.179l-0.001-0.003c0.7 1.632 1.613 3.034 2.725 4.251l-0.010-0.011-2.565 2.205c-0.107 0.092-0.175 0.228-0.175 0.38 0 0.043 0.005 0.084 0.015 0.124l-0.001-0.003c0.041 0.186 0.181 0.332 0.362 0.379l0.003 0.001 1.71 0.425 0.41 1.695c0.047 0.181 0.188 0.321 0.367 0.364l0.003 0.001c0.035 0.010 0.075 0.015 0.117 0.015 0.005 0 0.009-0 0.014-0l-0.001 0c0 0 0 0 0 0 0.152 0 0.288-0.068 0.379-0.174l2.381-2.776c0.638 0.435 1.372 0.857 2.139 1.222l0.101 0.043-1.91 3.44c-0.042 0.072-0.067 0.158-0.067 0.25s0.025 0.178 0.068 0.252l-0.001-0.002c0.085 0.142 0.236 0.238 0.409 0.245l0.001 0h1.795l1.35 1.355c0.090 0.090 0.215 0.145 0.352 0.145 0.001 0 0.002 0 0.003 0h-0c0.018 0.002 0.039 0.004 0.060 0.004s0.042-0.001 0.062-0.004l-0.002 0c0.172-0.043 0.307-0.171 0.359-0.336l0.001-0.004 1.225-4.085c0.613 0.138 1.367 0.257 2.134 0.329l0.076 0.006-0.415 4.545c-0.001 0.013-0.002 0.029-0.002 0.044 0 0.172 0.087 0.325 0.22 0.414l0.002 0.001c0.078 0.052 0.173 0.083 0.276 0.083 0.082 0 0.159-0.020 0.227-0.054l-0.003 0.001 1.78-0.885 1.775 0.885c0.066 0.035 0.145 0.055 0.228 0.055 0.276 0 0.5-0.224 0.5-0.5 0-0.019-0.001-0.039-0.003-0.057l0 0.002-0.415-4.56c0.843-0.078 1.597-0.197 2.335-0.358l-0.125 0.023 1.205 4.095c0.053 0.169 0.188 0.297 0.357 0.339l0.003 0.001c0.037 0.010 0.079 0.015 0.123 0.015 0.006 0 0.012-0 0.018-0l-0.001 0c0.001 0 0.002 0 0.003 0 0.137 0 0.262-0.055 0.352-0.145l-0 0 1.35-1.355h1.795c0.182-0 0.341-0.097 0.429-0.243l0.001-0.002c0.042-0.072 0.067-0.158 0.067-0.25s-0.025-0.178-0.068-0.252l0.001 0.002-1.91-3.44c0.858-0.41 1.584-0.831 2.272-1.302l-0.057 0.037 2.38 2.775c0.092 0.107 0.228 0.175 0.38 0.175 0.002 0 0.004 0 0.005-0h-0c0.017 0.002 0.037 0.004 0.058 0.004s0.040-0.001 0.060-0.004l-0.002 0c0.182-0.044 0.323-0.184 0.369-0.362l0.001-0.003 0.425-1.71 1.71-0.425c0.181-0.047 0.321-0.188 0.364-0.367l0.001-0.003c0.009-0.036 0.015-0.078 0.015-0.12 0-0.152-0.067-0.287-0.174-0.379l-0.001-0.001zM3.255 24.94l-0.255-1.060c-0.043-0.19-0.19-0.337-0.377-0.379l-0.003-0.001-1.060-0.25 2.44-2.070 1.345 1.345zM9.755 29.055l-0.905-0.91c-0.090-0.089-0.213-0.144-0.35-0.145h-1.15l1.875-3.37 1.665 0.665zM16.22 29.555c-0.066-0.034-0.143-0.053-0.225-0.053s-0.159 0.020-0.228 0.055l0.003-0.001-1.19 0.595 0.375-4.15h2.090l0.375 4.15zM23.5 28c-0.001 0-0.002 0-0.003 0-0.137 0-0.262 0.055-0.352 0.145l0-0-0.905 0.91-1.13-3.76 1.665-0.665 1.875 3.37zM29.38 23.5c-0.18 0.046-0.319 0.185-0.364 0.362l-0.001 0.003-0.265 1.060-2.070-2.415 1.345-1.345 2.415 2.070z"></path>
<path d="M31.685 0.040c-0.055-0.023-0.12-0.036-0.187-0.036-0.208 0-0.387 0.127-0.462 0.308l-0.001 0.003s-0.29 0.61-1.5 1.32l-3.71 1.395-0.045 0.025c-2.675 0.607-5.748 0.954-8.902 0.954-0.309 0-0.617-0.003-0.924-0.010l0.046 0.001c-0.261 0.006-0.569 0.009-0.878 0.009-3.154 0-6.226-0.348-9.181-1.007l0.28 0.052-0.045-0.025-3.725-1.395c-0.619-0.305-1.126-0.755-1.491-1.306l-0.009-0.014c-0.074-0.189-0.256-0.321-0.468-0.321-0.277 0-0.501 0.224-0.501 0.501 0 0.065 0.012 0.127 0.035 0.183l-0.001-0.003c0.348 0.645 0.853 1.165 1.467 1.52l0.018 0.010v4.795c0 0.201 0.12 0.375 0.292 0.454l0.003 0.001c0.060 0.028 0.131 0.044 0.205 0.044 0.127 0 0.242-0.047 0.33-0.125l-0.001 0 3.795-3.32c0.445 0.105 0.925 0.205 1.435 0.3l0.94 4.745c0.042 0.198 0.196 0.351 0.392 0.389l0.003 0.001 0.105 0.010c0.173-0.001 0.325-0.089 0.414-0.223l0.001-0.002 2.92-4.375c0.425 0 0.87 0.040 1.32 0.060l1.89 4.245c0.081 0.174 0.254 0.293 0.455 0.293s0.374-0.119 0.454-0.29l0.001-0.003 1.89-4.245c0.45 0 0.895-0.035 1.32-0.060l2.92 4.375c0.090 0.136 0.242 0.224 0.415 0.225h0.095c0.205-0.037 0.365-0.195 0.404-0.397l0-0.003 0.95-4.745c0.5-0.095 1-0.195 1.435-0.3l3.795 3.32c0.088 0.077 0.203 0.124 0.33 0.124 0.074 0 0.145-0.016 0.208-0.045l-0.003 0.001c0.17-0.082 0.285-0.253 0.285-0.451 0-0.001 0-0.003 0-0.004v0-4.795c0.626-0.367 1.126-0.887 1.46-1.509l0.010-0.021c0.019-0.051 0.030-0.109 0.030-0.17 0-0.21-0.129-0.389-0.312-0.463l-0.003-0.001zM9.255 7.72l-0.63-3.14 2.5 0.315zM22.755 7.72l-1.89-2.825 2.5-0.315zM2.5 5.9v-3.11c0.694 0.355 1.51 0.68 2.358 0.929l0.102 0.026zM17.23 5l-1.23 2.77-1.23-2.77zM29.5 5.9l-2.46-2.155c0.95-0.275 1.766-0.6 2.542-0.993l-0.082 0.038z"></path>
</symbol>
<symbol id="icon-accessories" viewBox="0 0 32 32">
<path d="M10.261 12.101c4.212 5.763 4.892 9.963 4.008 12.566-1.469 4.33-7.184 4.33-8.653 0-0.884-2.606-0.202-6.813 4.024-12.588l-0.001-0.001c0.157-0.215 0.483-0.198 0.62 0.023zM13.561 24.427c0.796-2.347 0.169-6.166-3.617-11.487-3.786 5.321-4.414 9.14-3.617 11.486 1.238 3.65 5.996 3.65 7.235 0z"></path>
<path d="M22.375 12.101c4.212 5.763 4.892 9.963 4.008 12.566-1.469 4.33-7.183 4.33-8.653 0-0.884-2.606-0.202-6.813 4.024-12.588l-0.001-0.001c0.157-0.215 0.483-0.198 0.62 0.023zM25.674 24.427c0.796-2.347 0.169-6.166-3.617-11.487-3.786 5.321-4.414 9.14-3.617 11.486 1.238 3.65 5.996 3.65 7.235 0z"></path>
<path d="M9.944 26.030c-1.351 0-2.411-1.010-2.695-2.57-0.471-2.57 1.031-5.75 2.375-7.964 0.145-0.239 0.496-0.239 0.641 0 1.344 2.216 2.846 5.396 2.375 7.964-0.284 1.562-1.341 2.57-2.695 2.57zM9.944 16.426c-5.25 9.143 1.249 10.784 1.958 6.899 0.393-2.143-0.776-4.841-1.958-6.899z"></path>
<path d="M9.944 12.676c-0.096 0-0.193-0.036-0.266-0.109l-1.518-1.518c-0.146-0.146-0.146-0.383 0-0.531l1.518-1.518c0.146-0.146 0.383-0.146 0.531 0l1.518 1.518c0.146 0.146 0.146 0.386 0 0.531l-1.518 1.518c-0.073 0.073-0.169 0.11-0.266 0.11zM8.954 10.783l0.99 0.99 0.99-0.99-0.99-0.99-0.99 0.99z"></path>
<path d="M9.944 9.639c-0.208 0-0.375-0.167-0.375-0.375v-1.453c0-0.494 0.75-0.494 0.75 0v1.453c0 0.206-0.167 0.375-0.375 0.375z"></path>
<path d="M9.944 8.186c-0.807 0-1.464-0.656-1.464-1.464s0.656-1.464 1.464-1.464c0.807 0 1.464 0.656 1.464 1.464s-0.656 1.464-1.464 1.464zM9.944 6.007c-0.939 0-0.939 1.427 0 1.427 0.938 0 0.941-1.427 0-1.427z"></path>
<path d="M9.944 6.007c-0.208 0-0.375-0.167-0.375-0.375v-2.289c0-0.569 0.648-0.189 1.159-0.7 0.697-0.698 0.2-1.893-0.784-1.893-0.612 0-1.109 0.497-1.109 1.109 0 0.494-0.75 0.494-0.75 0 0-1.023 0.833-1.859 1.859-1.859 2.252 0 2.515 3.255 0.375 3.68v1.951c0 0.208-0.167 0.378-0.375 0.378z"></path>
<path d="M22.059 12.676c-0.096 0-0.193-0.036-0.266-0.109l-1.518-1.518c-0.146-0.146-0.146-0.383 0-0.531l1.518-1.518c0.146-0.146 0.383-0.146 0.531 0l1.518 1.518c0.146 0.146 0.146 0.383 0 0.531l-1.518 1.518c-0.073 0.073-0.169 0.109-0.266 0.109zM21.069 10.783l0.99 0.99 0.99-0.99-0.99-0.99-0.99 0.99z"></path>
<path d="M22.059 9.639c-0.206 0-0.375-0.167-0.375-0.375v-1.453c0-0.494 0.75-0.494 0.75 0v1.453c0 0.206-0.169 0.375-0.375 0.375z"></path>
<path d="M22.059 8.186c-0.807 0-1.464-0.656-1.464-1.464s0.656-1.464 1.464-1.464c0.807 0 1.464 0.656 1.464 1.464s-0.656 1.464-1.464 1.464zM22.059 6.007c-0.939 0-0.939 1.427 0 1.427s0.939-1.427 0-1.427z"></path>
<path d="M22.059 6.007c-0.206 0-0.375-0.167-0.375-0.375v-2.289c0-0.569 0.648-0.189 1.159-0.7 0.698-0.698 0.199-1.893-0.781-1.893-0.609 0-1.109 0.497-1.109 1.109 0 0.493-0.749 0.494-0.75 0-0.003-1.023 0.831-1.857 1.857-1.857 2.24 0 2.527 3.239 0.375 3.682v1.951c0 0.203-0.169 0.372-0.375 0.372z"></path>
<path d="M22.059 26.030c-1.352 0-2.411-1.010-2.698-2.57-0.469-2.57 1.034-5.75 2.375-7.964 0.145-0.239 0.496-0.239 0.641 0 1.344 2.213 2.846 5.393 2.375 7.964-0.281 1.562-1.341 2.57-2.693 2.57zM22.059 16.426c-5.25 9.143 1.249 10.784 1.958 6.899 0.393-2.143-0.779-4.841-1.958-6.899z"></path>
<path d="M9.944 32.001c-0.667 0-1.185-0.484-1.323-1.234-0.164-0.901 0.172-2.052 1.003-3.419 0.145-0.239 0.496-0.239 0.641 0 0.831 1.367 1.167 2.518 1.003 3.419-0.138 0.75-0.656 1.234-1.323 1.234zM9.944 28.303c-1.585 3.035 0.362 3.576 0.586 2.328 0.107-0.591-0.094-1.388-0.586-2.328z"></path>
<path d="M22.059 32.001c-0.667 0-1.185-0.484-1.323-1.234-0.164-0.901 0.172-2.052 1.003-3.419 0.145-0.239 0.496-0.239 0.641 0 0.831 1.367 1.167 2.518 1.003 3.419-0.138 0.75-0.656 1.234-1.323 1.234zM22.059 28.303c-1.585 3.035 0.362 3.576 0.586 2.328 0.107-0.591-0.096-1.388-0.586-2.328z"></path>
</symbol>
<symbol id="icon-costumes" viewBox="0 0 32 32">
<path d="M32 14.399v13.835c0 2.071-1.694 3.765-3.765 3.765s-3.765-1.694-3.765-3.765v-9.468c3.125-0.264 5.835-1.939 7.529-4.367zM8.471 0c3.298 0 6.131 1.914 7.529 4.67 1.399-2.756 4.232-4.67 7.529-4.67h8.471v8.471c0 4.67-3.8 8.471-8.471 8.471h-15.059c-4.67-0-8.471-3.8-8.471-8.471v-8.471zM28.235 5.647h-4.706c-2.596 0-4.706 2.112-4.706 4.706v0.941h4.706c2.596 0 4.706-2.112 4.706-4.706v-0.941zM8.471 5.647h-4.706v0.941c0 2.594 2.11 4.706 4.706 4.706h4.706v-0.941c0-2.594-2.11-4.706-4.706-4.706z"></path>
</symbol>
</defs>
</svg>
